<svg width="512" height="512" viewBox="0 0 512 512" role="img" xmlns="http://www.w3.org/2000/svg">
  <title>Shader Cache Cleaner</title>
  <desc>App icon featuring a stylized GPU chip with a trash can badge</desc>

  <rect x="56" y="56" width="400" height="400" rx="72" fill="#1a1a2e"/>

  <rect x="96" y="96" width="320" height="320" rx="40" fill="#0f3460"/>

  <rect x="120" y="120" width="272" height="272" rx="24" fill="#16213e"/>

  <rect x="144" y="144" width="224" height="224" rx="16" fill="#0e4d6e" stroke="#1a8fa0" stroke-width="2"/>

  <line x1="144" y1="197" x2="368" y2="197" stroke="#1a8fa0" stroke-width="1" opacity="0.5"/>
  <line x1="144" y1="256" x2="368" y2="256" stroke="#1a8fa0" stroke-width="1" opacity="0.5"/>
  <line x1="144" y1="315" x2="368" y2="315" stroke="#1a8fa0" stroke-width="1" opacity="0.5"/>
  <line x1="197" y1="144" x2="197" y2="368" stroke="#1a8fa0" stroke-width="1" opacity="0.5"/>
  <line x1="256" y1="144" x2="256" y2="368" stroke="#1a8fa0" stroke-width="1" opacity="0.5"/>
  <line x1="315" y1="144" x2="315" y2="368" stroke="#1a8fa0" stroke-width="1" opacity="0.5"/>

  <rect x="96" y="226" width="28" height="14" rx="4" fill="#1a8fa0"/>
  <rect x="96" y="256" width="28" height="14" rx="4" fill="#1a8fa0"/>
  <rect x="96" y="286" width="28" height="14" rx="4" fill="#1a8fa0"/>

  <rect x="388" y="226" width="28" height="14" rx="4" fill="#1a8fa0"/>
  <rect x="388" y="256" width="28" height="14" rx="4" fill="#1a8fa0"/>
  <rect x="388" y="286" width="28" height="14" rx="4" fill="#1a8fa0"/>

  <rect x="226" y="96" width="14" height="28" rx="4" fill="#1a8fa0"/>
  <rect x="256" y="96" width="14" height="28" rx="4" fill="#1a8fa0"/>
  <rect x="286" y="96" width="14" height="28" rx="4" fill="#1a8fa0"/>

  <rect x="226" y="388" width="14" height="28" rx="4" fill="#1a8fa0"/>
  <rect x="256" y="388" width="14" height="28" rx="4" fill="#1a8fa0"/>
  <rect x="286" y="388" width="14" height="28" rx="4" fill="#1a8fa0"/>

  <circle cx="376" cy="376" r="88" fill="#e05a2b"/>
  <circle cx="376" cy="376" r="72" fill="#c0441a"/>

  <rect x="352" y="350" width="48" height="52" rx="5" fill="none" stroke="#fff" stroke-width="4" stroke-linecap="round" stroke-linejoin="round"/>
  <line x1="344" y1="350" x2="408" y2="350" stroke="#fff" stroke-width="4" stroke-linecap="round"/>
  <rect x="364" y="340" width="24" height="11" rx="3" fill="none" stroke="#fff" stroke-width="3.5" stroke-linecap="round"/>
  <line x1="367" y1="362" x2="367" y2="392" stroke="#fff" stroke-width="3" stroke-linecap="round"/>
  <line x1="376" y1="362" x2="376" y2="392" stroke="#fff" stroke-width="3" stroke-linecap="round"/>
  <line x1="385" y1="362" x2="385" y2="392" stroke="#fff" stroke-width="3" stroke-linecap="round"/>
</svg>
